<svg xmlns="http://www.w3.org/2000/svg" viewBox="0 0 64 64">
  <rect width="64" height="64" rx="14" fill="#10151c" />
  <circle cx="46" cy="18" r="8" fill="#147c78" />
  <path
    d="M17.8 42H12l9.2-24h5.4l9.2 24h-5.9l-1.7-4.9h-8.7L17.8 42Zm3.2-9.6h5.7l-2.9-8.2-2.8 8.2ZM38 42V18h8.3c2.6 0 4.8.5 6.7 1.5 1.9 1 3.4 2.4 4.4 4.2 1.1 1.8 1.6 3.9 1.6 6.3s-.5 4.5-1.6 6.3c-1 1.8-2.5 3.2-4.4 4.2-1.9 1-4.2 1.5-6.7 1.5H38Zm5.5-4.9h2.5c2.4 0 4.2-.6 5.4-1.9 1.2-1.3 1.8-3 1.8-5.2s-.6-3.9-1.8-5.2c-1.2-1.3-3-1.9-5.4-1.9h-2.5v14.2Z"
    fill="#ffffff"
  />
</svg>
